<svg id="Capa_1" enable-background="new 0 0 512 512" height="512" viewBox="0 0 512 512" width="512" xmlns="http://www.w3.org/2000/svg"><g><g><path d="m344.561 360.455h-145.086s-72.603 34.858-72.603 144.044h61.216l28.382-19.424s23.01 19.015 28.38 19.424h54.334l28.382-19.424 28.382 19.424h61.216c-.001-109.186-72.603-144.044-72.603-144.044z" fill="#f7c572"/><path d="m244.852 422.57v43.082l-28.382 19.424-28.382-19.424v-43.082l28.382-13.944z" fill="#e6e5f7"/><path d="m299.184 422.57v43.082l28.382 19.424 28.382-19.424v-43.082l-28.382-13.944z" fill="#e6e5f7"/><path d="m188.088 465.652h56.765v38.848h-56.765z" fill="#71defd"/><path d="m344.561 360.455h-145.086s-15.886 7.629-32.796 26.923c21.503 20.839 50.986 33.083 81.958 33.083 7.221-.005 15.297-.008 23.374-.008 8.078 0 23.466.008 23.468.008 30.907 0 60.378-12.245 81.878-33.083-16.91-19.294-32.796-26.923-32.796-26.923z" fill="#f9b467"/><g fill="#71defd"><path d="m188.088 367.635h56.765v54.935h-56.765z"/><path d="m299.184 465.652h56.765v38.848h-56.765z"/><path d="m299.184 367.635h56.765v54.935h-56.765z"/></g><path d="m470.606 169.827c-8.942-35.794-27.496-68.587-54.372-95.269-79.802-79.221-209.582-79.919-290.017 1.881-25.98 26.42-43.946 58.525-52.727 93.388l198.558 33.516z" fill="#f7c572"/><circle cx="441.533" cy="229.889" fill="#f9c4b7" r="48.276"/><path d="m185.484 34.393c-7.871-12.42-20.388-21.838-35.481-25.355-27.288-6.358-53.923 7.576-65.241 31.217-7.311 15.271-20.37 27.206-36.727 31.58-3.52.941-6.843 1.549-9.954 1.9-13.634 1.535-20.516 17.397-12.429 28.48 12.489 17.114 32.009 34.088 59.957 33.141-5.062 11.099-9.134 22.621-12.119 34.472l57.126 9.643c2.758-66.333 38.209-124.22 90.675-157.955-12.216 3.129-24.202 7.436-35.807 12.877z" fill="#f9b467"/><path d="m405.908 115.863c-23.01-29.586-62.828-40.849-97.545-26.725-.849.345-1.686.697-2.509 1.054-21.656 9.391-46.115 9.323-67.781-.046-.687-.297-1.384-.591-2.089-.88-34.593-14.188-74.382-3.062-97.435 26.375-22.249 28.41-35.661 64.015-36.041 102.541-.01.473-.01.945-.01 1.418 0 .633 0 1.257.01 1.89.915 91.662 75.968 157.133 168.243 157.797 94.206.694 170.777-65.411 170.777-159.456 0-39.186-13.295-75.262-35.62-103.968z" fill="#f9d6c8"/><path d="m130.428 187.815c0-29.642 6.54-57.751 18.236-82.985-3.634 3.268-7.029 6.87-10.115 10.811-15.043 19.208-26.038 41.708-31.705 66.173-1.43-.129-2.877-.201-4.341-.201-26.662 0-48.276 21.614-48.276 48.276s21.614 48.275 48.276 48.275c3.6 0 7.103-.404 10.477-1.153 23.797 61.477 85.499 101.755 157.771 102.275 2.659.02 5.302-.021 7.932-.107-85.252-21.905-148.255-99.276-148.255-191.364z" fill="#f9c4b7"/><path d="m197.841 241.187-107.18-83.115c-7.764-5.841-18.796-4.281-24.637 3.483-5.841 7.765-4.281 18.796 3.484 24.637l107.18 83.116c7.74 5.822 18.778 4.307 24.637-3.484 5.841-7.765 4.282-18.795-3.484-24.637z" fill="#5f66af"/><path d="m130.44 188.919-39.778-30.847c-7.764-5.841-18.796-4.281-24.637 3.483-5.841 7.765-4.281 18.796 3.484 24.637l67.498 52.343c-4.198-15.845-6.473-32.472-6.567-49.616z" fill="#4c5696"/><path d="m478.012 161.556c-5.842-7.765-16.873-9.325-24.637-3.483l-107.18 83.115c-7.766 5.841-9.325 16.872-3.484 24.637 5.859 7.791 16.897 9.306 24.637 3.484l107.18-83.116c7.765-5.841 9.324-16.872 3.484-24.637z" fill="#5f66af"/><path d="m299.184 420.401c20.279-.642 39.826-6.529 56.765-16.626v-36.139h-56.765z" fill="#2fc7f3"/><path d="m188.088 403.771c16.929 10.088 36.468 15.975 56.765 16.629v-52.764h-56.765z" fill="#2fc7f3"/><path d="m352.56 250.416-37.3-13.231c-13.985-4.967-28.614-7.44-43.242-7.44-14.629 0-29.257 2.473-43.242 7.44l-37.3 13.231c-18.741 6.646-31.258 24.371-31.258 44.247v7.158c0 17.331 4.844 33.965 13.551 48.223 15.838 25.937 44.457 41.318 74.847 41.295 14.456-.011 32.334-.011 46.796 0 30.393.023 59.017-15.355 74.856-41.295 8.706-14.258 13.551-30.891 13.551-48.223v-7.158c-.001-19.876-12.518-37.601-31.259-44.247z" fill="#e6e5f7"/><path d="m201.396 318.974c0-33.087 13.627-62.986 35.568-84.408-2.684.761-5.35 1.611-7.992 2.55l-37.497 13.301c-18.839 6.681-31.422 24.499-31.422 44.48v7.196c0 17.422 4.87 34.143 13.622 48.477 11.508 18.846 29.729 32.143 50.482 38.061-14.306-19.521-22.761-43.6-22.761-69.657z" fill="#cbcbf7"/></g><g><path d="m199.482 181.003c-8.344 0-16.278 3.614-21.769 9.915-2.721 3.123-2.396 7.86.727 10.582 3.122 2.721 7.86 2.396 10.582-.727 2.641-3.031 6.454-4.77 10.461-4.77s7.82 1.738 10.461 4.77c2.721 3.122 7.459 3.447 10.581.727 3.123-2.721 3.448-7.458.727-10.582-5.491-6.301-13.426-9.915-21.77-9.915z"/><path d="m323.523 201.499c3.123 2.721 7.86 2.396 10.582-.727 2.641-3.031 6.454-4.77 10.461-4.77s7.82 1.738 10.461 4.77c2.722 3.123 7.459 3.447 10.582.727 3.123-2.721 3.448-7.459.727-10.582-5.491-6.301-13.426-9.915-21.77-9.915s-16.278 3.614-21.769 9.915c-2.721 3.123-2.396 7.861.726 10.582z"/><path d="m230.063 305.322c-4.142 0-7.5 3.358-7.5 7.5 0 4.143 3.358 7.5 7.5 7.5h83.922c4.142 0 7.5-3.357 7.5-7.5 0-4.142-3.358-7.5-7.5-7.5z"/><path d="m228.916 274.942c-3.427 2.326-4.319 6.991-1.992 10.417 2.327 3.427 6.991 4.318 10.418 1.992 4.846-3.29 16.837-7.132 34.682-7.132s29.836 3.842 34.682 7.132c1.291.876 2.756 1.295 4.206 1.295 2.401 0 4.761-1.151 6.212-3.288 2.327-3.427 1.435-8.091-1.992-10.418-8.967-6.088-25.082-9.722-43.108-9.722-18.026.001-34.141 3.635-43.108 9.724z"/><path d="m306.706 338.292c-4.846 3.29-16.837 7.133-34.682 7.133s-29.836-3.843-34.682-7.133c-3.426-2.327-8.091-1.435-10.418 1.992s-1.435 8.091 1.992 10.418c8.966 6.088 25.081 9.723 43.108 9.723 18.026 0 34.14-3.635 43.108-9.723 3.427-2.327 4.319-6.991 1.992-10.418s-6.992-4.319-10.418-1.992z"/><path d="m74.516 142.328c-.777 1.978-1.524 3.97-2.244 5.977-4.719 1.541-9.03 4.484-12.234 8.744-7.794 10.361-6.327 24.854 2.986 33.481-10.328 10.371-16.289 24.5-16.289 39.361 0 30.754 25.021 55.775 55.776 55.775 1.926 0 3.858-.109 5.786-.311 12.449 28.886 33.315 53.686 61.141 71.804 2.286 3.411 4.794 6.647 7.498 9.697-12.946 10.811-28.691 28.013-40.554 53.856-1.729 3.765-.078 8.217 3.687 9.945 3.764 1.728 8.217.077 9.945-3.687 8.965-19.529 20.316-33.546 30.581-43.29v113.321h-46.093c.496-15.206 2.507-29.688 5.999-43.144 1.04-4.009-1.367-8.103-5.376-9.143-4.006-1.04-8.103 1.366-9.144 5.376-4.38 16.881-6.602 35.187-6.602 54.411 0 4.142 3.358 7.5 7.5 7.5h290.29c4.142 0 7.5-3.358 7.5-7.5 0-36.97-8.057-69.692-23.947-97.257-10.795-18.727-23.351-31.797-33.612-40.383 2.551-2.877 4.925-5.921 7.106-9.12 28.175-18.137 49.227-43.127 61.701-72.369 32.948 3.352 61.397-22.642 61.397-55.48 0-14.861-5.962-28.99-16.289-39.361 9.313-8.627 10.78-23.12 2.986-33.481 0 0 0 0 0-.001-3.178-4.224-7.443-7.154-12.117-8.706-10.638-29.856-27.558-56.458-50.371-79.105-11.297-11.215-23.834-21.151-37.262-29.532-3.515-2.194-8.141-1.122-10.333 2.391-2.193 3.514-1.123 8.141 2.391 10.333 12.479 7.789 24.133 17.026 34.637 27.453 19.919 19.774 35.015 42.772 44.963 68.473-6.352 2.153-9.239 5.792-17.27 11.651-.393-1.097-.797-2.189-1.211-3.276-.001-.003-.002-.005-.003-.008-6.195-16.261-14.774-31.521-25.553-45.399-.016-.021-.031-.042-.048-.063-24.693-31.75-68.756-45.365-108.959-27.947-20.285 8.796-42.89 8.137-61.819-.049-32.257-13.939-67.294-7.714-92.441 11.84-14.637 11.382-26.768 29.57-34.948 45.874-3.102 6.188-5.835 12.556-8.192 19.086l-10.211-7.918c-1.955-1.499-4.578-2.923-7.031-3.753 1.503-3.858 2.602-6.377 4.206-9.925 26.182-57.405 79.189-100.464 143.254-112.472 38.469-7.212 77.808-2.913 113.765 12.43 3.81 1.627 8.216-.145 9.842-3.954 1.625-3.81-.145-8.216-3.955-9.842-38.693-16.511-81.024-21.137-122.415-13.378-15.552 2.916-30.586 7.535-44.906 13.735-9.145-11.711-21.828-19.878-36.312-23.252-30.82-7.181-60.917 8.565-73.707 35.282-7.576 15.824-21.375 27.084-40.756 29.265-19.348 2.179-29.14 24.607-17.649 40.354 15.211 20.843 34.02 33.014 54.916 35.691zm-2.492 23.738c3.354-4.459 9.684-5.303 14.081-2.038.005.003.01.007.016.011 3.436 2.664 11.834 9.177 15.109 11.716 15.697 12.173 77.339 59.974 87.348 67.736-6.612 2.406-13.015 6.234-18.429 11.251-10.091-7.826-84.744-65.717-96.038-74.475-.029-.022-.058-.045-.087-.066-4.448-3.347-5.345-9.688-2-14.135zm240.735 78.189 37.3 13.231h.001c.005.002.01.004.015.005 6.224 2.215 12.033 6.055 16.657 11.424 12.355 14.343 9.027 28.754 9.592 32.908 0 46.506-36.12 82.017-80.831 82.017-.003 0-.005 0-.008 0-.019 0-.042 0-.061 0-15.519-.012-36.102-.009-46.807 0-44.906-.037-80.892-35.531-80.892-82.018.447-3.589-2.593-18.747 9.579-32.891 4.573-5.317 10.376-9.208 16.686-11.446 35.571-12.617 33.524-11.891 37.303-13.231 13.093-4.65 26.797-7.008 40.732-7.008 13.497.001 27.232 2.214 40.734 7.009zm-75.401 153.931v16.885h-41.764v-32c.118.078.239.15.357.227 12.374 8.09 26.508 13.184 41.407 14.888zm-41.764 31.885h41.764v28.081h-41.764zm56.764-31.233c12.119-.008 28.66-.007 39.332 0v98.162h-39.331c-.001-21.104-.001-78.676-.001-98.162zm54.332 31.233h41.764v28.081h-41.764zm41.765-47.001v32.001h-41.765v-16.885c.008-.001.016-.002.023-.003 14.881-1.707 28.998-6.795 41.36-14.87.127-.083.256-.161.382-.243zm-41.765 113.93v-23.848h41.764v23.848zm-203.893-226.335c-22.97.117-41.062-18.501-41.062-40.774 0-11.462 4.851-22.335 13.19-30.011 6.912 5.36 13.124 10.178 20.14 15.618-.494 18.721 2.119 37.597 7.732 55.167zm7.39-43.44c7.223 5.601 43.268 33.553 50.475 39.142-10.239 16.853-7.478 32.178-7.937 35.456v.005c.002 8.785 1.211 17.723 3.422 25.955-27.704-26.011-44.092-61.177-45.96-100.558zm85.407 245.927h41.764v23.848h-41.764zm192.133-58.418c13.489 23.401 20.818 51.047 21.823 82.266h-46.096c0-24.573 0 53.699 0-113.304 7.853 7.47 16.543 17.629 24.273 31.038zm.03-86.417c2.256-8.239 3.567-17.288 3.567-26.494-.501-3.792 2.361-18.504-7.937-35.456 4.638-3.596 44.417-34.445 50.478-39.144-1.663 38.342-17.466 74.349-46.108 101.094zm94.557-98.426c0 22.544-18.365 40.883-40.958 40.775 5.374-17.019 8.105-35.722 7.62-55.161l20.148-15.624c8.339 7.674 13.19 18.548 13.19 30.01zm-12.29-49.69c-.029.021-.058.044-.087.066l-96.038 74.475c-5.381-4.987-11.843-8.862-18.429-11.251 0 0 96.395-74.751 102.457-79.452 4.398-3.279 10.74-2.435 14.097 2.027 3.345 4.448 2.448 10.789-2 14.135zm-161.183-83.125c33.581-14.559 70.411-3.275 91.152 23.393 11.415 14.673 20.238 31.151 26.117 49.261-9.547 7.403-74.536 57.801-84.465 65.5-1.018.77-2.286 1.939-2.729 2.388-27.49-9.751-18.945-6.72-21.14-7.499-14.718-5.227-30.113-7.872-45.752-7.872-15.65 0-31.043 2.648-45.749 7.871-.117.041-20.78 7.371-21.143 7.5-.5-.506-1.751-1.647-2.717-2.378-.004-.003-.007-.006-.01-.009l-84.4-65.45c2.809-8.58 6.303-16.871 10.476-24.819.002-.003.003-.007.005-.01 6.986-13.303 17.168-28.536 29.324-38 20.413-15.894 47.84-20.747 72.399-11.877 7.083 2.56 39.272 19.067 78.632 2.001zm-269.914-15.887c24.391-2.75 42.741-17.089 52.606-37.694 10.258-21.425 33.625-32.544 56.774-27.15 10.023 2.335 18.935 7.673 25.754 15.312-40.637 21.293-73.629 55.631-93.206 96.182-18.671-.833-35.184-10.922-49.138-30.043-4.7-6.443-.704-15.717 7.21-16.607z"/></g></g></svg>